<?xml version="1.0" encoding="UTF-8"?>
<svg id="Livello_1" xmlns="http://www.w3.org/2000/svg" version="1.1" viewBox="0 0 1117.9376517 150.8328578">
  <!-- Generator: Adobe Illustrator 30.2.1, SVG Export Plug-In . SVG Version: 2.1.1 Build 1)  -->
  <path d="M37.0087103,126.9805404V38.6290836l5.7378717-5.7378717h23.113985v35.4883721h59.6396848l24.6619216-35.6361616h26.2943899c1.6114012,3.0736518,1.9280141,3.677572,3.5394154,6.7512237l-29.8506154,43.1623763,29.8525728,43.1797441c-1.6115,3.0732515-1.9283009,3.6774147-3.5398009,6.7506662h-26.2959617l-24.4644021-35.3573929h-59.8372043v35.4883721h-23.113985c-2.2407783-2.2407783-3.4970934-3.4970934-5.7378717-5.7378717Z" fill="none" stroke="#2864eb" stroke-miterlimit="10" stroke-width="4"/>
  <path d="M338.7020428,87.0434266v39.8716242c-2.2407783,2.2407783-3.4970934,3.4970934-5.7378717,5.7378717h-23.113985v-35.4883721s-24.497-35.4890726-24.497-35.4890726h-62.0711778s0,70.9774447,0,70.9774447h-23.1125842c-2.2407783-2.2407783-3.4970934-3.4970934-5.7378717-5.7378717V38.5467838c2.2407783-2.2407783,3.4970934-3.4970934,5.7378717-5.7378717h101.2569765s37.2756423,54.2345144,37.2756423,54.2345144Z" fill="none" stroke="#2864eb" stroke-miterlimit="10" stroke-width="4"/>
  <path d="M540.7238419,32.8172575v70.9767443h35.5996225l22.1026902-32.2180935v-33.0207791c2.2407783-2.2407783,3.4970934-3.4970934,5.7378717-5.7378717h17.3747125c2.2407783,2.2407783,3.4970934,3.4970934,5.7378717,5.7378717v65.2388726h35.8218159l21.8790959-31.2188213v-39.757923h23.113985c2.2407783,2.2407783,3.4970934,3.4970934,5.7378717,5.7378717v39.8716242l-37.2528925,54.2178236-78.1671421-.0001194v-19.4955958l-13.4011042,19.4955958h-67.4306028c-2.2407783-2.2407783-3.4970934-3.4970934-5.7378717-5.7378717V38.5551292c2.2407783-2.2407783,3.4970934-3.4970934,5.7378717-5.7378717h23.1462045Z" fill="none" stroke="#2864eb" stroke-miterlimit="10" stroke-width="4"/>
  <path d="M353.135659,38.4812942v88.4992462c2.2407783,2.2407783,3.4970934,3.4970934,5.7378717,5.7378717h23.1293944s0-.0466657,0-.0466657l95.5662472-.0000004,19.8369772-28.9346814V38.4812942c-2.2407783-2.2407783-3.4970934-3.4970934-5.7378717-5.7378717h-21.9547837s-67.9446097,0-67.9446097,0h-19.7659593s-14.433633,0-14.433633,0h-8.6957613c-2.2407783,2.2407783-3.4970934,3.4970934-5.7378717,5.7378717ZM461.669354,103.8044803h-79.6664289v-42.1937917h86.5527685v32.1726865s-6.8863396,10.0211053-6.8863396,10.0211053Z" fill="none" stroke="#2864eb" stroke-miterlimit="10" stroke-width="4"/>
  <path d="M915.851178,32.8172575v70.9767443h35.5996225l22.1026902-32.2180935v-33.0207791c2.2407783-2.2407783,3.4970934-3.4970934,5.7378717-5.7378717h17.3747125c2.2407783,2.2407783,3.4970934,3.4970934,5.7378717,5.7378717v65.2388726h35.8218159l21.8790959-31.2188213v-39.757923h23.113985c2.2407783,2.2407783,3.4970934,3.4970934,5.7378717,5.7378717v39.8716242l-37.2528925,54.2178236-78.1671421-.0001194v-19.4955958l-13.4011042,19.4955958h-67.4306028c-2.2407783-2.2407783-3.4970934-3.4970934-5.7378717-5.7378717V38.5551292c2.2407783-2.2407783,3.4970934-3.4970934,5.7378717-5.7378717h23.1462045Z" fill="none" stroke="#2864eb" stroke-miterlimit="10" stroke-width="4"/>
  <path d="M728.2629952,38.4812942v88.4992462c2.2407783,2.2407783,3.4970934,3.4970934,5.7378717,5.7378717h23.1293944s0-.0466657,0-.0466657l95.5662472-.0000004,19.8369772-28.9346814V38.4812942c-2.2407783-2.2407783-3.4970934-3.4970934-5.7378717-5.7378717h-21.9547837s-67.9446097,0-67.9446097,0h-19.7659593s-14.433633,0-14.433633,0h-8.6957613c-2.2407783,2.2407783-3.4970934,3.4970934-5.7378717,5.7378717ZM836.7966901,103.8044803h-79.6664289v-42.1937917h86.5527685v32.1726865s-6.8863396,10.0211053-6.8863396,10.0211053Z" fill="none" stroke="#2864eb" stroke-miterlimit="10" stroke-width="4"/>
</svg>