<?xml version="1.0" encoding="UTF-8"?>
<svg id="Livello_1" xmlns="http://www.w3.org/2000/svg" version="1.1" viewBox="0 0 1405.7226751 183.3654349">
  <!-- Generator: Adobe Illustrator 30.2.1, SVG Export Plug-In . SVG Version: 2.1.1 Build 1)  -->
  <path d="M28.2299113,148.4579629V33.8563638c2.9065369-2.9065369,4.5361165-4.5361165,7.4426534-7.4426534h29.9813919v46.0323388h77.3592592l31.9892366-46.224038h34.1067282c2.0901654,3.9868659,2.5008473,4.7702171,4.5910127,8.757083l-38.7195456,55.98637,38.7220846,56.0088978c-2.0902935,3.9863467-2.5012193,4.770013-4.5915128,8.7563597h-34.1087671l-31.733032-45.8624443h-77.6154638v46.0323388h-29.9813919c-2.9065369-2.9065369-4.5361165-4.5361165-7.4426534-7.4426534Z" fill="#2864eb"/>
  <path d="M419.5594896,96.5701674v51.717901c-2.9065369,2.9065369-4.5361165,4.5361165-7.4426534,7.4426534h-29.9813919v-46.0323388s-31.7753151-46.0332474-31.7753151-46.0332474h-80.5131742s0,92.0655862,0,92.0655862h-29.9795748c-2.9065369-2.9065369-4.5361165-4.5361165-7.4426534-7.4426534V33.6646646c2.906537-2.9065369,4.5361165-4.5361165,7.4426534-7.4426534h131.3414836s48.3506257,70.3481562,48.3506257,70.3481562Z" fill="#2864eb"/>
  <path d="M681.6040791,26.2220112v92.0646777h46.1766428l28.6696307-41.7904261v-42.8315981c2.9065369-2.9065369,4.5361165-4.5361165,7.4426534-7.4426534h22.5369214c2.9065369,2.9065369,4.5361165,4.5361165,7.4426534,7.4426534v84.6220243h46.4648522l28.3796042-40.4942597V26.2220112h29.9813919c2.9065369,2.9065369,4.5361165,4.5361165,7.4426534,7.4426534v51.717901l-48.3211166,70.3265063-101.3914179-.0001548v-25.2879412l-17.3827125,25.2879412h-87.4649404c-2.9065369-2.9065369-4.5361165-4.5361165-7.4426534-7.4426534V33.6646646c2.9065369-2.9065369,4.5361165-4.5361165,7.4426534-7.4426534h30.0231841Z" fill="#2864eb"/>
  <path d="M438.2814843,33.5688924v114.7932983c2.9065369,2.9065369,4.5361164,4.5361165,7.4426534,7.4426534h30.0013795s0-.0605306,0-.0605306l123.9599792-.0000005,25.7307507-37.531478V33.5688924c-2.9065369-2.9065369-4.5361164-4.5361165-7.4426534-7.4426534h-28.4777796s-88.1316642,0-88.1316642,0h-25.6386327s-18.7220164,0-18.7220164,0h-11.279363c-2.9065369,2.9065369-4.5361165,4.5361164-7.4426534,7.4426534ZM579.0616756,118.3002806h-103.3361585v-54.7300087h112.2685017v41.7315282s-8.9323432,12.9984805-8.9323432,12.9984805Z" fill="#2864eb"/>
  <path d="M1168.1856718,26.2220112v92.0646777h46.1766428l28.6696307-41.7904261v-42.8315981c2.9065369-2.9065369,4.5361165-4.5361165,7.4426534-7.4426534h22.5369214c2.9065369,2.9065369,4.5361165,4.5361165,7.4426534,7.4426534v84.6220243h46.4648522l28.3796042-40.4942597V26.2220112h29.9813919c2.9065369,2.9065369,4.5361165,4.5361165,7.4426534,7.4426534v51.717901l-48.3211166,70.3265063-101.3914179-.0001548v-25.2879412l-17.3827125,25.2879412h-87.4649404c-2.9065369-2.9065369-4.5361165-4.5361165-7.4426534-7.4426534V33.6646646c2.9065369-2.9065369,4.5361165-4.5361165,7.4426534-7.4426534h30.0231841Z" fill="#2864eb"/>
  <path d="M924.863077,33.5688924v114.7932983c2.9065369,2.9065369,4.5361164,4.5361165,7.4426534,7.4426534h30.0013795s0-.0605306,0-.0605306l123.9599792-.0000005,25.7307507-37.531478V33.5688924c-2.9065369-2.9065369-4.5361164-4.5361165-7.4426534-7.4426534h-28.4777796s-88.1316642,0-88.1316642,0h-25.6386327s-18.7220164,0-18.7220164,0h-11.279363c-2.9065369,2.9065369-4.5361165,4.5361164-7.4426534,7.4426534ZM1065.6432683,118.3002806h-103.3361585v-54.7300087h112.2685017v41.7315282s-8.9323432,12.9984805-8.9323432,12.9984805Z" fill="#2864eb"/>
</svg>